<svg width="439" height="91" viewBox="0 0 439 91" fill="none" xmlns="http://www.w3.org/2000/svg">
<path d="M438.027 6.23077H0.56543L37.7962 47.6923L0.56543 83.2308H438.027V6.23077Z" fill="#8E01FE" fill-opacity="0.23"/>
<path d="M211.598 46.6862L227.658 66H214.574L205.09 54.4394L195.399 66H184.877V16.8502H196.022V44.4018L195.814 51.1858H196.091L201.214 44.5402L212.636 30.0029H225.581L211.598 46.6862ZM256.625 28.9646C266.801 28.9646 271.509 35.264 271.509 45.4401V66H260.294V47.5169C260.294 42.1866 258.079 38.7253 252.264 38.7253C246.449 38.7253 243.749 42.1866 243.749 47.5169V66H232.604V16.8502H243.749V34.7795L242.849 36.9254C245.272 32.495 249.08 28.9646 256.625 28.9646ZM298.339 66H285.74L273.972 30.0029H285.463L292.524 54.2317L301.523 30.0029H313.291L322.291 54.2317L329.352 30.0029H340.843L329.005 66H316.476L307.407 41.7712L298.339 66ZM354.275 67.0384C346.452 67.0384 341.607 63.231 341.607 55.547C341.607 48.2784 345.968 44.6787 355.382 44.6787H367.912V41.9097C367.912 38.3792 365.835 37.2023 360.713 37.2023C356.005 37.2023 353.79 38.2407 353.375 41.1482H343.476C343.06 31.8028 349.983 28.9646 360.92 28.9646C373.727 28.9646 379.057 32.9796 379.057 41.1482V66H369.643L368.535 60.9466H368.258C365.697 64.8232 360.228 67.0384 354.275 67.0384ZM358.29 58.6621H358.774C363.966 58.6621 367.912 56.5162 367.912 52.9165V51.4627H357.182C354.413 51.4627 352.96 52.7088 352.96 54.9932C352.96 57.2084 354.413 58.6621 358.29 58.6621ZM414.047 30.0029V39.4868H402.625V51.6704C402.625 55.3393 404.009 56.3777 407.471 56.3777H414.047V66.3461H405.394C395.01 66.3461 391.48 61.708 391.48 53.4703V39.4868H383.519V30.0029H391.48V18.9269H402.625V30.0029H414.047Z" fill="white"/>
<path d="M167.353 63.8616L161.631 66.2197L173.485 64.6956L167.353 63.8616ZM128.231 42.8172L130.854 48.4228L128.231 42.8172ZM137.042 60.9589L136.782 54.7755L137.042 60.9589ZM157.837 50.5221L161.901 45.855L157.837 50.5221ZM126.725 34.9898C140.787 31.058 150.124 31.4648 155.288 34.9675C159.867 38.0742 163.602 45.5191 161.22 63.0276L173.485 64.6956C176.039 45.9206 172.9 31.9583 162.236 24.7242C152.156 17.8862 137.879 19.0187 123.392 23.0692L126.725 34.9898ZM125.608 37.2117C118.907 40.3472 115.571 48.1173 117.238 54.9813C118.124 58.6303 120.393 61.9576 124.039 64.2073C127.606 66.4092 132.116 67.3603 137.302 67.1424L136.782 54.7755C133.333 54.9204 131.454 54.2387 130.539 53.674C129.702 53.1572 129.394 52.5839 129.266 52.0603C128.907 50.5791 129.801 48.9156 130.854 48.4228L125.608 37.2117ZM173.075 61.5035C170.354 54.9013 166.387 49.7617 161.901 45.855L153.772 55.1892C156.899 57.9123 159.686 61.4995 161.631 66.2197L173.075 61.5035ZM161.901 45.855C154.657 39.5463 146.668 36.9393 140.171 36.0804C136.928 35.6517 134.004 35.6502 131.643 35.8568C129.511 36.0432 127.238 36.4489 125.608 37.2117L130.854 48.4228C130.473 48.6009 130.988 48.3391 132.721 48.1875C134.224 48.0561 136.241 48.0463 138.549 48.3515C143.157 48.9606 148.722 50.7906 153.772 55.1892L161.901 45.855ZM137.302 67.1424C152.98 66.4836 161.423 58.7818 163.654 52.6335L152.019 48.4107C152.026 48.3913 151.871 48.7811 151.326 49.4209C150.808 50.0283 150.005 50.7791 148.839 51.5269C146.537 53.0034 142.72 54.526 136.782 54.7755L137.302 67.1424Z" fill="white"/>
</svg>
