<svg width="2524" height="98" viewBox="0 0 2524 98" fill="none" xmlns="http://www.w3.org/2000/svg">
<path d="M73.352 94.8401C70.552 94.4401 54.5187 75.0068 46.852 65.3401C40.852 74.5068 27.9521 93.2401 24.3521 94.8401C19.8521 96.8401 7.35205 80.3401 6.85205 77.8401C6.45205 75.8401 25.0187 63.0068 34.352 56.8401C24.352 52.3401 3.95195 42.5401 2.35195 39.3401C0.351952 35.3401 7.35195 23.8401 11.352 23.8401C14.552 23.8401 30.352 35.1734 37.852 40.8401C36.5187 31.1734 33.952 11.2401 34.352 8.84009C34.852 5.84009 51.352 4.34009 53.852 8.84009C55.852 12.4401 54.6854 30.6734 53.852 39.3401C59.6854 33.5068 72.552 22.2401 77.352 23.8401C83.352 25.8401 89.352 36.8401 88.852 40.8401C88.452 44.0401 68.352 52.8401 58.352 56.8401C68.0187 63.3401 87.352 77.1401 87.352 80.3401C87.352 84.3401 76.852 95.3401 73.352 94.8401Z" stroke="white" stroke-width="3"/>
<path d="M334.797 45.6524V68.2273M334.797 68.2273V96.4388H298.956L286.829 84.5962V9.84009H359.621L374.566 25.355M334.797 68.2273L362.439 96.4388H422.534V9.84009H374.566V25.355M374.566 34.6639V25.355" stroke="white" stroke-width="2.27742"/>
<path d="M650.418 60.2278V70.3339M650.418 70.3339V96.6665H602.251L590.01 84.4254V10.7225H637.921V34.6639V24.3016L652.553 10.7225H726V33.3259M650.418 70.3339L677.576 96.6665H726V47.1896M726 47.1896H711.909M726 47.1896V33.3259M689.818 47.1896H711.909M711.909 47.1896L726 33.3259" stroke="white" stroke-width="2.27742"/>
<path d="M788.145 70.7609V83.5856M788.145 83.5856V96.4103H737.359L726 84.7955V10.5233H773.171L788.145 24.3017M788.145 83.5856L801.952 96.4103H849.607V34.7209L824.925 10.5233H788.145V24.3017M788.145 47.7875V24.3017" stroke="white" stroke-width="2.27742"/>
<path d="M115.852 85.0517V10.4094H163.108V96.6665H128.292L115.852 85.0517Z" stroke="white" stroke-width="2.27742"/>
<path d="M274.645 96.6665H163.934V10.0109H249.793L287.512 47.7305V84.2261L274.645 96.6665Z" stroke="white" stroke-width="2.27742"/>
<path d="M262.603 72.2982H200.344" stroke="white" stroke-width="2.27742"/>
<path d="M504.778 59.7725H554.283" stroke="black" stroke-width="0.0569354"/>
<path d="M1035.22 58.3206H1083.98" stroke="black" stroke-width="0.0569354"/>
<path d="M1085.49 59.7439H1035.05" stroke="white" stroke-width="2.27742"/>
<path d="M554.027 59.7439H503.155" stroke="white" stroke-width="2.27742"/>
<path d="M527.153 71.8712V80.8954M527.153 80.8954V95.784H478.445L466.716 84.0554V10.5233H552.888L590.323 47.5313V95.784H541.586L527.153 80.8954Z" stroke="white" stroke-width="2.27742"/>
<path d="M935.124 71.7858V82.4042M935.124 82.4042V96.6096H886.472L849.721 59.6016V10.6941L885.675 10.6656L899.767 23.7893M935.124 82.4042L949.158 96.6096H998.009V10.6656H949.728V23.7893M949.728 60.4841V23.7893M949.728 23.7893L935.721 10.6656H899.767V23.7893M899.767 47.5598V23.7893" stroke="white" stroke-width="2.27742"/>
<path d="M1058.3 71.3587V82.8312M1058.3 82.8312V96.211H1009.48L997.923 85.1086L997.667 10.7225H1084.52L1121.1 47.2181V96.211H1072.14L1058.3 82.8312Z" stroke="white" stroke-width="2.27742"/>
<path d="M1206.85 46.3926V72.3266M1206.85 72.3266V96.0687H1170.89L1158.94 84.3969V46.3926V59.4308H1132.75L1121.47 48.1576V10.8364H1233.04L1244.85 22.6505V72.3266H1206.85Z" stroke="white" stroke-width="2.27742"/>
<path d="M1350.35 90.8401C1347.55 90.4401 1331.52 71.0068 1323.85 61.3401C1317.85 70.5068 1304.95 89.2401 1301.35 90.8401C1296.85 92.8401 1284.35 76.3401 1283.85 73.8401C1283.45 71.8401 1302.02 59.0068 1311.35 52.8401C1301.35 48.3401 1280.95 38.5401 1279.35 35.3401C1277.35 31.3401 1284.35 19.8401 1288.35 19.8401C1291.55 19.8401 1307.35 31.1734 1314.85 36.8401C1313.52 27.1734 1310.95 7.24009 1311.35 4.84009C1311.85 1.84009 1328.35 0.340086 1330.85 4.84009C1332.85 8.44009 1331.69 26.6734 1330.85 35.3401C1336.69 29.5068 1349.55 18.2401 1354.35 19.8401C1360.35 21.8401 1366.35 32.8401 1365.85 36.8401C1365.45 40.0401 1345.35 48.8401 1335.35 52.8401C1345.02 59.3401 1364.35 73.1401 1364.35 76.3401C1364.35 80.3401 1353.85 91.3401 1350.35 90.8401Z" stroke="white" stroke-width="3"/>
<path d="M1611.83 41.6524V64.2273M1611.83 64.2273V92.4388H1575.99L1563.86 80.5962V5.84009H1636.65L1651.6 21.355M1611.83 64.2273L1639.47 92.4388H1699.56V5.84009H1651.6V21.355M1651.6 30.6639V21.355" stroke="white" stroke-width="2.27742"/>
<path d="M1927.45 56.2278V66.3339M1927.45 66.3339V92.6665H1879.28L1867.04 80.4254V6.72253H1914.95V30.6639V20.3016L1929.58 6.72253H2003.03V29.3259M1927.45 66.3339L1954.61 92.6665H2003.03V43.1896M2003.03 43.1896H1988.94M2003.03 43.1896V29.3259M1966.85 43.1896H1988.94M1988.94 43.1896L2003.03 29.3259" stroke="white" stroke-width="2.27742"/>
<path d="M2065.17 66.7609V79.5856M2065.17 79.5856V92.4103H2014.39L2003.03 80.7955V6.52332H2050.2L2065.17 20.3017M2065.17 79.5856L2078.98 92.4103H2126.64V30.7209L2101.95 6.52332H2065.17V20.3017M2065.17 43.7875V20.3017" stroke="white" stroke-width="2.27742"/>
<path d="M1392.88 81.0517V6.40942H1440.14V92.6665H1405.32L1392.88 81.0517Z" stroke="white" stroke-width="2.27742"/>
<path d="M1551.67 92.6665H1440.96V6.01086H1526.82L1564.54 43.7305V80.2261L1551.67 92.6665Z" stroke="white" stroke-width="2.27742"/>
<path d="M1539.63 68.2982H1477.37" stroke="white" stroke-width="2.27742"/>
<path d="M1781.81 55.7725H1831.31" stroke="black" stroke-width="0.0569354"/>
<path d="M2312.25 54.3206H2361.01" stroke="black" stroke-width="0.0569354"/>
<path d="M2362.52 55.7439H2312.07" stroke="white" stroke-width="2.27742"/>
<path d="M1831.06 55.7439H1780.18" stroke="white" stroke-width="2.27742"/>
<path d="M1804.18 67.8712V76.8954M1804.18 76.8954V91.784H1755.47L1743.75 80.0554V6.52332H1829.92L1867.35 43.5313V91.784H1818.62L1804.18 76.8954Z" stroke="white" stroke-width="2.27742"/>
<path d="M2212.15 67.7858V78.4042M2212.15 78.4042V92.6096H2163.5L2126.75 55.6016V6.69412L2162.7 6.66565L2176.8 19.7893M2212.15 78.4042L2226.19 92.6096H2275.04V6.66565H2226.76V19.7893M2226.76 56.4841V19.7893M2226.76 19.7893L2212.75 6.66565H2176.8V19.7893M2176.8 43.5598V19.7893" stroke="white" stroke-width="2.27742"/>
<path d="M2335.33 67.3587V78.8312M2335.33 78.8312V92.211H2286.51L2274.95 81.1086L2274.7 6.72253H2361.55L2398.13 43.2181V92.211H2349.17L2335.33 78.8312Z" stroke="white" stroke-width="2.27742"/>
<path d="M2483.88 42.3926V68.3266M2483.88 68.3266V92.0687H2447.92L2435.97 80.3969V42.3926V55.4308H2409.78L2398.5 44.1576V6.83643H2510.07L2521.88 18.6505V68.3266H2483.88Z" stroke="white" stroke-width="2.27742"/>
</svg>
