<svg width="781" height="400" viewBox="0 0 781 400" fill="none" xmlns="http://www.w3.org/2000/svg">
<path d="M230.775 90.0281C223.806 90.358 220.204 81.8244 225.301 77.0606L238.344 64.8729C239.951 63.3707 240.818 61.2381 240.714 59.0403L239.87 41.2096C239.54 34.2402 248.074 30.6381 252.838 35.736L265.025 48.7784C266.528 50.386 268.66 51.2526 270.858 51.1486L288.689 50.3046C295.658 49.9747 299.26 58.5084 294.162 63.2722L281.12 75.4598C279.512 76.9621 278.646 79.0946 278.75 81.2925L279.594 99.1231C279.923 106.093 271.39 109.695 266.626 104.597L254.438 91.5543C252.936 89.9467 250.804 89.0801 248.606 89.1841L230.775 90.0281Z" fill="url(#paint0_linear_36_23)"/>
<path d="M132.247 271.664C119.281 227.339 158.117 167.557 178.171 151.653L231.946 333.057C237.391 364.709 194.471 394.541 172.726 398.063C167.04 398.736 160.879 369.541 132.247 271.664Z" fill="#8EC2FF"/>
<path d="M97.1697 126.127C97.1698 116.402 103.296 97.1975 103.296 97.1975L132.225 196.238L124.738 217.34C124.738 217.34 97.1696 137.018 97.1697 126.127Z" fill="#3D6DCB"/>
<path d="M185.319 361.986L172.046 398.063C199.614 396.361 221.736 370.495 229.904 356.201C234.364 348.396 233.648 328.179 231.946 319.784L185.319 361.986Z" fill="#3D6DCB"/>
<path d="M145.559 245.811C132.593 201.486 162.055 162.465 182.11 146.561L232.188 319.514C236.764 338.715 206.788 362.906 185.043 366.428C179.357 367.101 174.191 343.688 145.559 245.811Z" fill="#588DF7"/>
<path d="M176.9 125.348C145.635 144.047 134.176 180.834 132.355 196.89L103.09 97.0003C110.926 93.7937 123.741 85.3317 147.95 87.2875C164.975 88.6629 174.367 112.63 176.9 125.348Z" fill="#588DF7"/>
<path d="M176.899 125.348C145.635 144.047 134.176 180.834 132.354 196.89L103.089 97.0003C110.925 93.7936 123.741 85.3317 147.949 87.2874C164.974 88.6629 174.366 112.63 176.899 125.348Z" fill="#0135A8"/>
<path d="M440.578 64.4912L371.87 60.1587C370.898 75.5828 371.586 98.1505 363.956 107.524C341.161 135.527 292.516 103.019 242.907 140.716C177.923 190.096 192.301 287.452 231.413 323.001C274.685 362.331 351.526 347.803 381.535 331.059C445.006 295.644 431.173 191.301 440.578 64.4912Z" fill="#8EC2FF"/>
<path d="M314.161 188.234C328.505 189.138 349.472 185.271 358.145 183.823C356.469 248.377 347.192 272.066 317.804 272.88C311.207 273.063 268.68 273.374 268.964 230.885C269.198 195.987 299.812 187.927 314.161 188.234Z" fill="#8EC2FF"/>
<path d="M467.49 65.172L398.783 60.8394C397.81 76.2635 398.499 98.8312 390.869 108.204C368.074 136.208 319.429 103.7 269.82 141.397C204.836 190.777 219.214 288.132 258.325 323.681C301.597 363.012 378.439 348.484 408.448 331.74C471.919 296.325 458.086 191.982 467.49 65.172Z" fill="#588DF7"/>
<path d="M341.075 188.914C355.419 189.819 376.385 185.952 385.058 184.503C383.383 249.057 374.106 272.747 344.718 273.561C338.121 273.743 295.594 274.055 295.878 231.565C296.111 196.668 326.726 188.608 341.075 188.914Z" fill="white"/>
<path d="M330.385 273.19C352.167 274.675 360.789 216.919 360.675 187.763L386.201 184.019C383.138 218.054 384.159 233.369 374.97 254.13C365.852 274.73 346.721 275.572 330.385 273.19Z" fill="#3D6DCB"/>
<path d="M613.211 204.1C603.75 169.725 560.117 175.17 542.759 199.335L528.124 163.258L632.61 154.749L667.666 349.087C628.526 333.091 623.421 241.197 613.211 204.1Z" fill="#8EC2FF"/>
<path d="M667.666 349.087C666.872 345.57 664.058 330.708 657.796 298.035L719.398 291.568L727.226 334.452C717.016 351.81 685.364 354.532 667.666 349.087Z" fill="#3D6DCB"/>
<path d="M559.436 352.15C547.865 379.037 513.49 383.348 492.048 385.163L506.683 346.364L555.352 259.576C559.777 279.656 569.618 328.492 559.436 352.15Z" fill="#3D6DCB"/>
<path d="M519.776 100.993L454.61 114.83L504.84 351.383C504.84 351.383 549.47 346.674 560.03 322.638C576.955 284.116 510.886 177.795 577.73 162.239C644.575 146.683 641.599 270.584 659.083 301.605C673.07 326.422 707.766 319.19 723.366 312.473C701.105 198.017 701.337 173.45 673.623 139.153C626.042 84.4212 554.37 105.679 524.481 123.149L519.776 100.993Z" fill="#588DF7"/>
<path d="M443.038 162.237L454.61 114.929L504.981 351.129L492.048 385.163L443.038 162.237Z" fill="#8EC2FF"/>
<path d="M121.267 358.973L100.279 280.501M79.2898 202.029L100.279 280.501M100.279 280.501L24.7274 235.454M100.279 280.501L20.9887 301.708M100.279 280.501L57.3037 357.25" stroke="#8E01FE" stroke-width="21.1538"/>
<path d="M661.274 100.18C688.351 51.5259 781.004 78.6028 750.966 130.641C720.927 182.68 688.35 131.487 712.043 126.411C735.735 121.334 784.389 143.757 758.158 189.026C747.327 201.549 736.44 206.936 732.35 208.064" stroke="#F5B539" stroke-width="14.3846"/>
<defs>
<linearGradient id="paint0_linear_36_23" x1="253.621" y1="62.4734" x2="324.488" y2="29.1548" gradientUnits="userSpaceOnUse">
<stop stop-color="#FF9688"/>
<stop offset="1" stop-color="#F0614B"/>
</linearGradient>
</defs>
</svg>
