<svg width="531" height="458" viewBox="0 0 531 458" fill="none" xmlns="http://www.w3.org/2000/svg">
<g clip-path="url(#clip0_148_38)">
<rect width="531" height="458" rx="40" fill="white"/>
<rect width="253" height="1073.07" rx="126.5" transform="matrix(-1 0 0 1 253 -143)" fill="#2F7CE7"/>
<mask id="mask0_148_38" style="mask-type:alpha" maskUnits="userSpaceOnUse" x="0" y="-143" width="253" height="1074">
<rect width="253" height="1073.07" rx="126.5" transform="matrix(-1 0 0 1 253 -143)" fill="#2F7CE7"/>
</mask>
<g mask="url(#mask0_148_38)">
<path d="M312.389 -158.242H245.436V129.408H312.389V-158.242Z" fill="white"/>
<path d="M403.046 -94.4005L354.967 -140.996L154.779 65.5657L202.858 112.161L403.046 -94.4005Z" fill="white"/>
<path d="M423.716 14.5357L421.618 -52.3844L134.109 -43.3708L136.207 23.5493L423.716 14.5357Z" fill="white"/>
<path d="M362.746 107.148L407.812 57.6328L195.079 -135.983L150.013 -86.4679L362.746 107.148Z" fill="white"/>
<path d="M323.057 241.11H256.104V528.76H323.057V241.11Z" fill="white"/>
<path d="M413.714 304.952L365.635 258.357L165.448 464.918L213.527 511.514L413.714 304.952Z" fill="white"/>
<path d="M434.384 413.888L432.286 346.968L144.778 355.982L146.876 422.902L434.384 413.888Z" fill="white"/>
<path d="M373.414 506.501L418.48 456.985L205.747 263.369L160.682 312.885L373.414 506.501Z" fill="white"/>
</g>
<mask id="mask1_148_38" style="mask-type:alpha" maskUnits="userSpaceOnUse" x="0" y="-143" width="253" height="1074">
<rect width="253" height="1073.07" rx="126.5" transform="matrix(-1 0 0 1 253 -143)" fill="#2F7CE7"/>
</mask>
<g mask="url(#mask1_148_38)">
<path d="M547.18 -180.344C339.501 -147.954 350.552 116.122 469.062 116.122C587.572 116.122 381.799 -161.291 300.633 135.175C219.467 431.641 128.012 199.955 113.532 124.505C105.402 71.4106 69.4047 -19.6886 -9.5512 40.6716C-108.246 116.122 55.6103 273.881 98.2892 369.909C140.968 465.936 7.21551 493.373 -25.9368 425.925" stroke="#DFE287" stroke-width="43.441"/>
</g>
<path d="M299.428 357H274.171V288.671H299.394C306.356 288.671 312.35 290.039 317.377 292.775C322.426 295.489 326.319 299.403 329.054 304.519C331.79 309.613 333.158 315.707 333.158 322.802C333.158 329.92 331.79 336.037 329.054 341.152C326.341 346.268 322.459 350.194 317.41 352.93C312.361 355.643 306.367 357 299.428 357ZM290.686 342.921H298.794C302.619 342.921 305.856 342.276 308.502 340.986C311.171 339.673 313.184 337.549 314.541 334.613C315.92 331.655 316.61 327.718 316.61 322.802C316.61 317.887 315.92 313.972 314.541 311.058C313.162 308.122 311.127 306.009 308.436 304.719C305.767 303.407 302.475 302.751 298.56 302.751H290.686V342.921ZM342.8 357V288.671H359.315V317.564H360.216L382.803 288.671H402.254L378.032 319.166L402.688 357H382.936L365.921 330.142L359.315 338.483V357H342.8ZM424.282 288.671L439.563 338.717H440.13L455.41 288.671H473.894L450.84 357H428.853L405.799 288.671H424.282Z" fill="#2F3AAE"/>
<path opacity="0.3" d="M275.056 383.371C275.056 381.508 275.302 379.797 275.794 378.237C276.291 376.673 277.028 375.227 278.007 373.901H280.547C280.17 374.393 279.817 374.996 279.489 375.711C279.162 376.422 278.876 377.202 278.633 378.051C278.394 378.895 278.205 379.772 278.066 380.681C277.932 381.59 277.865 382.487 277.865 383.371C277.865 384.548 277.982 385.74 278.215 386.947C278.454 388.154 278.774 389.274 279.176 390.307C279.584 391.335 280.041 392.177 280.547 392.833H278.007C277.028 391.507 276.291 390.064 275.794 388.504C275.302 386.939 275.056 385.228 275.056 383.371ZM287.933 391H282.762V375.741H288.037C289.552 375.741 290.853 376.047 291.941 376.658C293.034 377.264 293.873 378.135 294.459 379.273C295.046 380.41 295.339 381.771 295.339 383.356C295.339 384.945 295.043 386.311 294.452 387.454C293.866 388.596 293.019 389.473 291.911 390.084C290.809 390.695 289.482 391 287.933 391ZM285.526 388.608H287.799C288.862 388.608 289.748 388.415 290.458 388.027C291.169 387.635 291.703 387.051 292.06 386.276C292.418 385.497 292.597 384.523 292.597 383.356C292.597 382.188 292.418 381.22 292.06 380.45C291.703 379.675 291.174 379.097 290.473 378.714C289.778 378.327 288.914 378.133 287.881 378.133H285.526V388.608ZM302.912 391.224C301.765 391.224 300.774 390.985 299.939 390.508C299.11 390.026 298.472 389.346 298.024 388.467C297.577 387.583 297.354 386.542 297.354 385.345C297.354 384.168 297.577 383.135 298.024 382.246C298.476 381.352 299.107 380.656 299.917 380.159C300.727 379.658 301.678 379.407 302.77 379.407C303.476 379.407 304.141 379.521 304.767 379.75C305.398 379.973 305.954 380.321 306.436 380.793C306.923 381.265 307.305 381.866 307.584 382.596C307.862 383.321 308.001 384.185 308.001 385.189V386.016H298.621V384.198H305.415C305.41 383.681 305.299 383.222 305.08 382.819C304.862 382.412 304.556 382.092 304.164 381.858C303.776 381.625 303.324 381.508 302.808 381.508C302.256 381.508 301.772 381.642 301.355 381.91C300.938 382.174 300.612 382.521 300.379 382.953C300.15 383.381 300.034 383.85 300.029 384.362V385.949C300.029 386.614 300.15 387.185 300.394 387.662C300.637 388.134 300.977 388.497 301.414 388.75C301.852 388.998 302.363 389.122 302.949 389.122C303.342 389.122 303.697 389.068 304.015 388.959C304.333 388.844 304.608 388.678 304.842 388.459C305.075 388.241 305.252 387.97 305.371 387.647L307.889 387.93C307.73 388.596 307.427 389.177 306.98 389.674C306.538 390.166 305.972 390.548 305.281 390.821C304.591 391.089 303.801 391.224 302.912 391.224ZM319.327 382.581L316.869 382.849C316.799 382.601 316.678 382.367 316.504 382.149C316.335 381.93 316.106 381.754 315.818 381.62C315.53 381.486 315.177 381.419 314.76 381.419C314.199 381.419 313.727 381.54 313.345 381.784C312.967 382.027 312.781 382.342 312.786 382.73C312.781 383.063 312.903 383.333 313.151 383.542C313.404 383.751 313.822 383.922 314.403 384.056L316.355 384.473C317.437 384.707 318.242 385.077 318.769 385.583C319.3 386.09 319.568 386.753 319.573 387.573C319.568 388.293 319.357 388.929 318.94 389.48C318.528 390.026 317.954 390.454 317.219 390.762C316.484 391.07 315.639 391.224 314.686 391.224C313.285 391.224 312.158 390.93 311.303 390.344C310.449 389.753 309.94 388.931 309.776 387.878L312.406 387.625C312.525 388.141 312.778 388.531 313.166 388.795C313.553 389.058 314.057 389.19 314.678 389.19C315.319 389.19 315.833 389.058 316.221 388.795C316.613 388.531 316.809 388.206 316.809 387.819C316.809 387.491 316.683 387.22 316.429 387.007C316.181 386.793 315.793 386.629 315.267 386.515L313.315 386.105C312.217 385.877 311.405 385.492 310.879 384.95C310.352 384.404 310.091 383.713 310.096 382.879C310.091 382.174 310.282 381.563 310.67 381.046C311.062 380.525 311.606 380.122 312.302 379.839C313.002 379.551 313.809 379.407 314.723 379.407C316.064 379.407 317.12 379.693 317.889 380.264C318.664 380.835 319.144 381.607 319.327 382.581ZM325.09 391.231C324.365 391.231 323.712 391.102 323.131 390.844C322.555 390.58 322.098 390.193 321.76 389.681C321.427 389.17 321.261 388.539 321.261 387.789C321.261 387.143 321.38 386.609 321.618 386.187C321.857 385.765 322.182 385.427 322.595 385.174C323.007 384.92 323.471 384.729 323.988 384.6C324.509 384.466 325.048 384.369 325.605 384.309C326.275 384.24 326.819 384.178 327.236 384.123C327.653 384.064 327.956 383.974 328.145 383.855C328.339 383.731 328.436 383.54 328.436 383.281V383.237C328.436 382.675 328.269 382.241 327.937 381.933C327.604 381.625 327.124 381.471 326.499 381.471C325.838 381.471 325.314 381.615 324.927 381.903C324.544 382.191 324.286 382.531 324.152 382.924L321.633 382.566C321.832 381.871 322.16 381.289 322.617 380.823C323.074 380.351 323.633 379.998 324.293 379.765C324.954 379.526 325.684 379.407 326.484 379.407C327.035 379.407 327.584 379.472 328.13 379.601C328.677 379.73 329.176 379.943 329.628 380.241C330.08 380.534 330.442 380.934 330.716 381.441C330.994 381.948 331.133 382.581 331.133 383.341V391H328.54V389.428H328.451C328.287 389.746 328.056 390.044 327.758 390.322C327.465 390.595 327.095 390.816 326.648 390.985C326.206 391.149 325.686 391.231 325.09 391.231ZM325.791 389.249C326.332 389.249 326.802 389.142 327.199 388.929C327.596 388.71 327.902 388.422 328.115 388.064C328.334 387.707 328.443 387.317 328.443 386.895V385.546C328.359 385.616 328.215 385.68 328.011 385.74C327.812 385.8 327.589 385.852 327.341 385.896C327.092 385.941 326.846 385.981 326.603 386.016C326.36 386.05 326.148 386.08 325.97 386.105C325.567 386.16 325.207 386.249 324.889 386.373C324.571 386.497 324.321 386.671 324.137 386.895C323.953 387.113 323.861 387.396 323.861 387.744C323.861 388.241 324.042 388.616 324.405 388.869C324.768 389.122 325.23 389.249 325.791 389.249ZM333.845 391V379.556H336.542V391H333.845ZM335.201 377.932C334.774 377.932 334.406 377.79 334.098 377.507C333.79 377.219 333.636 376.874 333.636 376.471C333.636 376.064 333.79 375.719 334.098 375.436C334.406 375.148 334.774 375.004 335.201 375.004C335.633 375.004 336.001 375.148 336.304 375.436C336.611 375.719 336.765 376.064 336.765 376.471C336.765 376.874 336.611 377.219 336.304 377.507C336.001 377.79 335.633 377.932 335.201 377.932ZM342.012 384.295V391H339.315V379.556H341.893V381.501H342.027C342.291 380.86 342.71 380.351 343.287 379.973C343.868 379.596 344.585 379.407 345.44 379.407C346.229 379.407 346.917 379.576 347.504 379.914C348.095 380.251 348.552 380.741 348.874 381.381C349.202 382.022 349.364 382.799 349.359 383.713V391H346.662V384.131C346.662 383.366 346.463 382.767 346.066 382.335C345.673 381.903 345.129 381.687 344.434 381.687C343.962 381.687 343.542 381.791 343.175 382C342.812 382.203 342.527 382.499 342.318 382.886C342.114 383.274 342.012 383.743 342.012 384.295ZM357.424 391V375.741H360.188V382.752H360.374L366.327 375.741H369.702L363.802 382.588L369.755 391H366.432L361.879 384.458L360.188 386.455V391H357.424ZM375.655 391.224C374.538 391.224 373.569 390.978 372.75 390.486C371.93 389.994 371.294 389.306 370.842 388.422C370.395 387.538 370.172 386.505 370.172 385.323C370.172 384.141 370.395 383.105 370.842 382.216C371.294 381.327 371.93 380.636 372.75 380.145C373.569 379.653 374.538 379.407 375.655 379.407C376.773 379.407 377.742 379.653 378.561 380.145C379.381 380.636 380.014 381.327 380.461 382.216C380.913 383.105 381.139 384.141 381.139 385.323C381.139 386.505 380.913 387.538 380.461 388.422C380.014 389.306 379.381 389.994 378.561 390.486C377.742 390.978 376.773 391.224 375.655 391.224ZM375.67 389.063C376.276 389.063 376.783 388.896 377.19 388.564C377.597 388.226 377.9 387.774 378.099 387.208C378.303 386.641 378.405 386.011 378.405 385.315C378.405 384.615 378.303 383.982 378.099 383.415C377.9 382.844 377.597 382.39 377.19 382.052C376.783 381.714 376.276 381.545 375.67 381.545C375.049 381.545 374.533 381.714 374.121 382.052C373.713 382.39 373.408 382.844 373.204 383.415C373.005 383.982 372.906 384.615 372.906 385.315C372.906 386.011 373.005 386.641 373.204 387.208C373.408 387.774 373.713 388.226 374.121 388.564C374.533 388.896 375.049 389.063 375.67 389.063ZM383.428 391V379.556H386.006V381.501H386.14C386.379 380.845 386.773 380.333 387.325 379.966C387.876 379.593 388.534 379.407 389.299 379.407C390.074 379.407 390.727 379.596 391.259 379.973C391.795 380.346 392.173 380.855 392.391 381.501H392.51C392.764 380.865 393.191 380.358 393.792 379.981C394.398 379.598 395.116 379.407 395.945 379.407C396.998 379.407 397.857 379.74 398.523 380.405C399.189 381.071 399.521 382.042 399.521 383.318V391H396.817V383.736C396.817 383.025 396.628 382.506 396.251 382.179C395.873 381.846 395.411 381.679 394.865 381.679C394.214 381.679 393.705 381.883 393.337 382.29C392.975 382.693 392.793 383.217 392.793 383.862V391H390.149V383.624C390.149 383.033 389.97 382.561 389.612 382.208C389.259 381.856 388.798 381.679 388.226 381.679C387.839 381.679 387.486 381.779 387.168 381.977C386.85 382.171 386.597 382.447 386.408 382.804C386.22 383.157 386.125 383.569 386.125 384.041V391H383.428ZM409.552 386.187V379.556H412.249V391H409.634V388.966H409.514C409.256 389.607 408.831 390.131 408.24 390.538C407.654 390.945 406.932 391.149 406.072 391.149C405.322 391.149 404.659 390.983 404.083 390.65C403.512 390.312 403.065 389.823 402.742 389.182C402.419 388.536 402.258 387.757 402.258 386.843V379.556H404.955V386.425C404.955 387.151 405.153 387.727 405.551 388.154C405.948 388.581 406.47 388.795 407.115 388.795C407.513 388.795 407.898 388.698 408.27 388.504C408.643 388.31 408.948 388.022 409.187 387.64C409.43 387.252 409.552 386.768 409.552 386.187ZM417.719 384.295V391H415.022V379.556H417.6V381.501H417.734C417.997 380.86 418.417 380.351 418.993 379.973C419.574 379.596 420.292 379.407 421.147 379.407C421.936 379.407 422.624 379.576 423.21 379.914C423.801 380.251 424.258 380.741 424.581 381.381C424.909 382.022 425.07 382.799 425.065 383.713V391H422.368V384.131C422.368 383.366 422.17 382.767 421.772 382.335C421.38 381.903 420.836 381.687 420.141 381.687C419.669 381.687 419.249 381.791 418.882 382C418.519 382.203 418.233 382.499 418.025 382.886C417.821 383.274 417.719 383.743 417.719 384.295ZM427.807 391V379.556H430.504V391H427.807ZM429.163 377.932C428.736 377.932 428.369 377.79 428.061 377.507C427.753 377.219 427.599 376.874 427.599 376.471C427.599 376.064 427.753 375.719 428.061 375.436C428.369 375.148 428.736 375.004 429.163 375.004C429.595 375.004 429.963 375.148 430.266 375.436C430.574 375.719 430.728 376.064 430.728 376.471C430.728 376.874 430.574 377.219 430.266 377.507C429.963 377.79 429.595 377.932 429.163 377.932ZM435.737 387.409L435.729 384.153H436.161L440.274 379.556H443.425L438.367 385.189H437.808L435.737 387.409ZM433.278 391V375.741H435.975V391H433.278ZM440.46 391L436.735 385.792L438.553 383.892L443.686 391H440.46ZM448.516 391.231C447.791 391.231 447.138 391.102 446.557 390.844C445.98 390.58 445.523 390.193 445.186 389.681C444.853 389.17 444.686 388.539 444.686 387.789C444.686 387.143 444.806 386.609 445.044 386.187C445.283 385.765 445.608 385.427 446.02 385.174C446.432 384.92 446.897 384.729 447.413 384.6C447.935 384.466 448.474 384.369 449.03 384.309C449.701 384.24 450.245 384.178 450.662 384.123C451.079 384.064 451.382 383.974 451.571 383.855C451.765 383.731 451.861 383.54 451.861 383.281V383.237C451.861 382.675 451.695 382.241 451.362 381.933C451.029 381.625 450.55 381.471 449.924 381.471C449.264 381.471 448.74 381.615 448.352 381.903C447.97 382.191 447.711 382.531 447.577 382.924L445.059 382.566C445.258 381.871 445.586 381.289 446.042 380.823C446.499 380.351 447.058 379.998 447.719 379.765C448.379 379.526 449.11 379.407 449.909 379.407C450.461 379.407 451.01 379.472 451.556 379.601C452.102 379.73 452.601 379.943 453.053 380.241C453.505 380.534 453.868 380.934 454.141 381.441C454.419 381.948 454.558 382.581 454.558 383.341V391H451.966V389.428H451.876C451.712 389.746 451.481 390.044 451.183 390.322C450.89 390.595 450.52 390.816 450.073 390.985C449.631 391.149 449.112 391.231 448.516 391.231ZM449.216 389.249C449.758 389.249 450.227 389.142 450.625 388.929C451.022 388.71 451.327 388.422 451.541 388.064C451.76 387.707 451.869 387.317 451.869 386.895V385.546C451.784 385.616 451.64 385.68 451.437 385.74C451.238 385.8 451.014 385.852 450.766 385.896C450.518 385.941 450.272 385.981 450.029 386.016C449.785 386.05 449.574 386.08 449.395 386.105C448.993 386.16 448.633 386.249 448.315 386.373C447.997 386.497 447.746 386.671 447.562 386.895C447.379 387.113 447.287 387.396 447.287 387.744C447.287 388.241 447.468 388.616 447.831 388.869C448.193 389.122 448.655 389.249 449.216 389.249ZM466.315 382.581L463.857 382.849C463.787 382.601 463.665 382.367 463.492 382.149C463.323 381.93 463.094 381.754 462.806 381.62C462.518 381.486 462.165 381.419 461.748 381.419C461.187 381.419 460.715 381.54 460.333 381.784C459.955 382.027 459.769 382.342 459.774 382.73C459.769 383.063 459.891 383.333 460.139 383.542C460.392 383.751 460.809 383.922 461.391 384.056L463.343 384.473C464.425 384.707 465.23 385.077 465.757 385.583C466.288 386.09 466.556 386.753 466.561 387.573C466.556 388.293 466.345 388.929 465.928 389.48C465.516 390.026 464.942 390.454 464.207 390.762C463.472 391.07 462.627 391.224 461.674 391.224C460.273 391.224 459.145 390.93 458.291 390.344C457.437 389.753 456.928 388.931 456.764 387.878L459.394 387.625C459.513 388.141 459.766 388.531 460.154 388.795C460.541 389.058 461.045 389.19 461.666 389.19C462.307 389.19 462.821 389.058 463.209 388.795C463.601 388.531 463.797 388.206 463.797 387.819C463.797 387.491 463.67 387.22 463.417 387.007C463.169 386.793 462.781 386.629 462.255 386.515L460.303 386.105C459.205 385.877 458.393 385.492 457.866 384.95C457.34 384.404 457.079 383.713 457.084 382.879C457.079 382.174 457.27 381.563 457.658 381.046C458.05 380.525 458.594 380.122 459.29 379.839C459.99 379.551 460.797 379.407 461.711 379.407C463.052 379.407 464.108 379.693 464.877 380.264C465.652 380.835 466.132 381.607 466.315 382.581ZM468.785 391V379.556H471.482V391H468.785ZM470.141 377.932C469.714 377.932 469.347 377.79 469.039 377.507C468.731 377.219 468.577 376.874 468.577 376.471C468.577 376.064 468.731 375.719 469.039 375.436C469.347 375.148 469.714 375.004 470.141 375.004C470.573 375.004 470.941 375.148 471.244 375.436C471.552 375.719 471.706 376.064 471.706 376.471C471.706 376.874 471.552 377.219 471.244 377.507C470.941 377.79 470.573 377.932 470.141 377.932ZM276.546 400.741L280.518 412.752H280.674L284.638 400.741H287.678L282.298 416H278.886L273.514 400.741H276.546ZM289.568 416V404.556H292.265V416H289.568ZM290.924 402.932C290.497 402.932 290.129 402.79 289.821 402.507C289.513 402.219 289.36 401.874 289.36 401.471C289.36 401.064 289.513 400.719 289.821 400.436C290.129 400.148 290.497 400.004 290.924 400.004C291.356 400.004 291.724 400.148 292.027 400.436C292.335 400.719 292.489 401.064 292.489 401.471C292.489 401.874 292.335 402.219 292.027 402.507C291.724 402.79 291.356 402.932 290.924 402.932ZM304.084 407.581L301.625 407.849C301.555 407.601 301.434 407.367 301.26 407.149C301.091 406.93 300.863 406.754 300.574 406.62C300.286 406.486 299.934 406.419 299.516 406.419C298.955 406.419 298.483 406.54 298.101 406.784C297.723 407.027 297.537 407.342 297.542 407.73C297.537 408.063 297.659 408.333 297.907 408.542C298.16 408.751 298.578 408.922 299.159 409.056L301.111 409.473C302.194 409.707 302.998 410.077 303.525 410.583C304.056 411.09 304.325 411.753 304.33 412.573C304.325 413.293 304.113 413.929 303.696 414.48C303.284 415.026 302.71 415.454 301.975 415.762C301.24 416.07 300.396 416.224 299.442 416.224C298.041 416.224 296.914 415.93 296.059 415.344C295.205 414.753 294.696 413.931 294.532 412.878L297.162 412.625C297.281 413.141 297.535 413.531 297.922 413.795C298.309 414.058 298.814 414.19 299.435 414.19C300.075 414.19 300.589 414.058 300.977 413.795C301.369 413.531 301.565 413.206 301.565 412.819C301.565 412.491 301.439 412.22 301.185 412.007C300.937 411.793 300.55 411.629 300.023 411.515L298.071 411.105C296.973 410.877 296.161 410.492 295.635 409.95C295.108 409.404 294.847 408.713 294.852 407.879C294.847 407.174 295.039 406.563 295.426 406.046C295.819 405.525 296.362 405.122 297.058 404.839C297.758 404.551 298.565 404.407 299.479 404.407C300.82 404.407 301.876 404.693 302.646 405.264C303.421 405.835 303.9 406.607 304.084 407.581ZM313.848 411.187V404.556H316.545V416H313.93V413.966H313.81C313.552 414.607 313.127 415.131 312.536 415.538C311.95 415.945 311.227 416.149 310.368 416.149C309.618 416.149 308.955 415.983 308.379 415.65C307.808 415.312 307.361 414.823 307.038 414.182C306.715 413.536 306.554 412.757 306.554 411.843V404.556H309.251V411.425C309.251 412.151 309.449 412.727 309.847 413.154C310.244 413.581 310.766 413.795 311.411 413.795C311.809 413.795 312.194 413.698 312.566 413.504C312.939 413.31 313.244 413.022 313.483 412.64C313.726 412.252 313.848 411.768 313.848 411.187ZM322.611 416.231C321.886 416.231 321.233 416.102 320.652 415.844C320.076 415.58 319.619 415.193 319.281 414.681C318.948 414.17 318.782 413.539 318.782 412.789C318.782 412.143 318.901 411.609 319.139 411.187C319.378 410.765 319.703 410.427 320.115 410.174C320.528 409.92 320.992 409.729 321.509 409.6C322.03 409.466 322.569 409.369 323.125 409.309C323.796 409.24 324.34 409.178 324.757 409.123C325.174 409.064 325.477 408.974 325.666 408.855C325.86 408.731 325.957 408.54 325.957 408.281V408.237C325.957 407.675 325.79 407.241 325.457 406.933C325.125 406.625 324.645 406.471 324.019 406.471C323.359 406.471 322.835 406.615 322.447 406.903C322.065 407.191 321.807 407.531 321.673 407.924L319.154 407.566C319.353 406.871 319.681 406.289 320.138 405.823C320.595 405.351 321.153 404.998 321.814 404.765C322.475 404.526 323.205 404.407 324.005 404.407C324.556 404.407 325.105 404.472 325.651 404.601C326.197 404.73 326.697 404.943 327.149 405.241C327.601 405.534 327.963 405.934 328.236 406.441C328.515 406.948 328.654 407.581 328.654 408.341V416H326.061V414.428H325.971C325.808 414.746 325.577 415.044 325.279 415.322C324.986 415.595 324.615 415.816 324.168 415.985C323.726 416.149 323.207 416.231 322.611 416.231ZM323.312 414.249C323.853 414.249 324.322 414.142 324.72 413.929C325.117 413.71 325.423 413.422 325.636 413.064C325.855 412.707 325.964 412.317 325.964 411.895V410.546C325.88 410.616 325.736 410.68 325.532 410.74C325.333 410.8 325.11 410.852 324.861 410.896C324.613 410.941 324.367 410.981 324.124 411.016C323.88 411.05 323.669 411.08 323.49 411.105C323.088 411.16 322.728 411.249 322.41 411.373C322.092 411.497 321.841 411.671 321.658 411.895C321.474 412.113 321.382 412.396 321.382 412.744C321.382 413.241 321.563 413.616 321.926 413.869C322.288 414.122 322.75 414.249 323.312 414.249ZM334.063 400.741V416H331.366V400.741H334.063ZM341.649 409.779C341.649 411.636 341.401 413.348 340.904 414.912C340.412 416.472 339.677 417.915 338.699 419.241H336.158C336.541 418.749 336.893 418.148 337.216 417.438C337.544 416.728 337.827 415.948 338.066 415.098C338.309 414.249 338.498 413.37 338.632 412.461C338.771 411.552 338.84 410.658 338.84 409.779C338.84 408.602 338.721 407.41 338.483 406.203C338.249 404.996 337.929 403.875 337.522 402.842C337.119 401.809 336.665 400.965 336.158 400.309H338.699C339.677 401.635 340.412 403.081 340.904 404.645C341.401 406.205 341.649 407.916 341.649 409.779Z" fill="#2F3AAE"/>
<rect width="252.976" height="1072.97" rx="126.488" transform="matrix(-1 0 0 1 253 -104.302)" fill="#F5B7FF"/>
<mask id="mask2_148_38" style="mask-type:alpha" maskUnits="userSpaceOnUse" x="0" y="-105" width="253" height="1074">
<rect width="252.976" height="1072.97" rx="126.488" transform="matrix(-1 0 0 1 253 -104.302)" fill="#F5B7FF"/>
</mask>
<g mask="url(#mask2_148_38)">
<path d="M249.953 -141.643C42.2938 -109.255 53.3435 154.795 171.842 154.795C290.341 154.795 84.5876 -122.591 3.42916 173.847C-77.7293 470.284 -270.909 275.961 -285.388 200.518C-296.971 140.164 -349.908 83.1624 -374.929 62.206" stroke="#E65F2D" stroke-width="43.4369"/>
</g>
<circle cx="124.976" cy="124.976" r="124.976" transform="matrix(-1 0 0 1 249.953 197.47)" fill="#C978D6"/>
<circle cx="91.7237" cy="91.7237" r="91.7237" transform="matrix(-1 0 0 1 216.922 230.5)" fill="#F5B7FF"/>
<circle cx="48.4283" cy="48.4283" r="48.4283" transform="matrix(-1 0 0 1 173.628 273.796)" fill="#C978D6"/>
</g>
<defs>
<clipPath id="clip0_148_38">
<rect width="531" height="458" rx="40" fill="white"/>
</clipPath>
</defs>
</svg>
