<svg width="531" height="458" viewBox="0 0 531 458" fill="none" xmlns="http://www.w3.org/2000/svg">
<g clip-path="url(#clip0_148_18)">
<rect width="531" height="458" rx="40" fill="white"/>
<rect width="253" height="1073.07" rx="126.5" transform="matrix(-1 0 0 1 253 -143)" fill="#2F7CE7"/>
<mask id="mask0_148_18" style="mask-type:alpha" maskUnits="userSpaceOnUse" x="0" y="-143" width="253" height="1074">
<rect width="253" height="1073.07" rx="126.5" transform="matrix(-1 0 0 1 253 -143)" fill="#2F7CE7"/>
</mask>
<g mask="url(#mask0_148_18)">
<path d="M312.389 -158.242H245.436V129.408H312.389V-158.242Z" fill="white"/>
<path d="M403.046 -94.4005L354.967 -140.996L154.779 65.5657L202.858 112.161L403.046 -94.4005Z" fill="white"/>
<path d="M423.716 14.5357L421.618 -52.3844L134.109 -43.3708L136.207 23.5493L423.716 14.5357Z" fill="white"/>
<path d="M362.746 107.148L407.812 57.6328L195.079 -135.983L150.013 -86.4679L362.746 107.148Z" fill="white"/>
<path d="M323.057 241.11H256.104V528.76H323.057V241.11Z" fill="white"/>
<path d="M413.714 304.952L365.635 258.357L165.448 464.918L213.527 511.514L413.714 304.952Z" fill="white"/>
<path d="M434.384 413.888L432.286 346.968L144.778 355.982L146.876 422.902L434.384 413.888Z" fill="white"/>
<path d="M373.414 506.501L418.48 456.985L205.747 263.369L160.682 312.885L373.414 506.501Z" fill="white"/>
</g>
<mask id="mask1_148_18" style="mask-type:alpha" maskUnits="userSpaceOnUse" x="0" y="-143" width="253" height="1074">
<rect width="253" height="1073.07" rx="126.5" transform="matrix(-1 0 0 1 253 -143)" fill="#2F7CE7"/>
</mask>
<g mask="url(#mask1_148_18)">
<path d="M547.18 -180.344C339.501 -147.954 350.552 116.122 469.062 116.122C587.572 116.122 381.799 -161.291 300.633 135.175C219.467 431.641 128.012 199.955 113.532 124.505C105.402 71.4106 69.4047 -19.6886 -9.5512 40.6716C-108.246 116.122 55.6103 273.881 98.2892 369.909C140.968 465.936 7.21551 493.373 -25.9368 425.925" stroke="#DFE287" stroke-width="43.441"/>
</g>
<path d="M274.171 357V288.671H302.397C307.513 288.671 311.928 289.595 315.642 291.441C319.379 293.265 322.259 295.889 324.283 299.314C326.307 302.718 327.319 306.755 327.319 311.425C327.319 316.163 326.285 320.189 324.217 323.503C322.148 326.795 319.212 329.308 315.409 331.043C311.605 332.756 307.101 333.612 301.896 333.612H284.047V320.6H298.827C301.318 320.6 303.398 320.278 305.066 319.633C306.756 318.966 308.035 317.965 308.903 316.63C309.77 315.273 310.204 313.538 310.204 311.425C310.204 309.312 309.77 307.566 308.903 306.187C308.035 304.786 306.756 303.741 305.066 303.051C303.376 302.339 301.296 301.984 298.827 301.984H290.686V357H274.171ZM312.639 325.772L329.655 357H311.639L294.957 325.772H312.639ZM336.378 357V288.671H364.603C369.719 288.671 374.134 289.672 377.849 291.674C381.585 293.654 384.466 296.423 386.49 299.982C388.514 303.518 389.526 307.633 389.526 312.326C389.526 317.042 388.491 321.168 386.423 324.704C384.377 328.218 381.452 330.943 377.648 332.878C373.845 334.813 369.33 335.781 364.103 335.781H346.687V322.769H361.033C363.524 322.769 365.604 322.335 367.272 321.468C368.963 320.6 370.242 319.388 371.109 317.831C371.977 316.252 372.41 314.417 372.41 312.326C372.41 310.213 371.977 308.389 371.109 306.855C370.242 305.298 368.963 304.097 367.272 303.251C365.582 302.406 363.502 301.984 361.033 301.984H352.893V357H336.378ZM397.666 357V288.671H414.181V343.588H442.607V357H397.666Z" fill="#2F3AAE"/>
<path opacity="0.3" d="M275.056 383.371C275.056 381.508 275.302 379.797 275.794 378.237C276.291 376.673 277.028 375.227 278.007 373.901H280.547C280.17 374.393 279.817 374.996 279.489 375.711C279.162 376.422 278.876 377.202 278.633 378.051C278.394 378.895 278.205 379.772 278.066 380.681C277.932 381.59 277.865 382.487 277.865 383.371C277.865 384.548 277.982 385.74 278.215 386.947C278.454 388.154 278.774 389.274 279.176 390.307C279.584 391.335 280.041 392.177 280.547 392.833H278.007C277.028 391.507 276.291 390.064 275.794 388.504C275.302 386.939 275.056 385.228 275.056 383.371ZM282.762 391V375.741H288.484C289.656 375.741 290.64 375.945 291.434 376.352C292.234 376.76 292.838 377.331 293.245 378.066C293.657 378.796 293.863 379.648 293.863 380.621C293.863 381.6 293.655 382.449 293.238 383.169C292.825 383.885 292.217 384.439 291.412 384.831C290.607 385.218 289.619 385.412 288.447 385.412H284.371V383.117H288.074C288.76 383.117 289.321 383.023 289.758 382.834C290.195 382.64 290.518 382.36 290.727 381.992C290.94 381.62 291.047 381.163 291.047 380.621C291.047 380.08 290.94 379.618 290.727 379.236C290.513 378.848 290.188 378.555 289.751 378.356C289.314 378.153 288.75 378.051 288.059 378.051H285.526V391H282.762ZM290.645 384.086L294.422 391H291.338L287.627 384.086H290.645ZM301.191 391.224C300.044 391.224 299.053 390.985 298.218 390.508C297.389 390.026 296.75 389.346 296.303 388.467C295.856 387.583 295.633 386.542 295.633 385.345C295.633 384.168 295.856 383.135 296.303 382.246C296.755 381.352 297.386 380.656 298.196 380.159C299.005 379.658 299.957 379.407 301.049 379.407C301.755 379.407 302.42 379.521 303.046 379.75C303.677 379.973 304.233 380.321 304.715 380.793C305.202 381.265 305.584 381.866 305.862 382.596C306.141 383.321 306.28 384.185 306.28 385.189V386.016H296.899V384.198H303.694C303.689 383.681 303.578 383.222 303.359 382.819C303.141 382.412 302.835 382.092 302.443 381.858C302.055 381.625 301.603 381.508 301.087 381.508C300.535 381.508 300.051 381.642 299.634 381.91C299.217 382.174 298.891 382.521 298.658 382.953C298.429 383.381 298.313 383.85 298.308 384.362V385.949C298.308 386.614 298.429 387.185 298.673 387.662C298.916 388.134 299.256 388.497 299.693 388.75C300.131 388.998 300.642 389.122 301.228 389.122C301.621 389.122 301.976 389.068 302.294 388.959C302.612 388.844 302.887 388.678 303.121 388.459C303.354 388.241 303.53 387.97 303.65 387.647L306.168 387.93C306.009 388.596 305.706 389.177 305.259 389.674C304.817 390.166 304.251 390.548 303.56 390.821C302.87 391.089 302.08 391.224 301.191 391.224ZM311.259 384.295V391H308.561V379.556H311.139V381.501H311.273C311.537 380.86 311.956 380.351 312.533 379.973C313.114 379.596 313.831 379.407 314.686 379.407C315.476 379.407 316.163 379.576 316.75 379.914C317.341 380.251 317.798 380.741 318.12 381.381C318.448 382.022 318.61 382.799 318.605 383.713V391H315.908V384.131C315.908 383.366 315.709 382.767 315.312 382.335C314.919 381.903 314.375 381.687 313.68 381.687C313.208 381.687 312.788 381.791 312.421 382C312.058 382.203 311.773 382.499 311.564 382.886C311.36 383.274 311.259 383.743 311.259 384.295ZM326.324 395.53C325.355 395.53 324.523 395.398 323.828 395.135C323.132 394.877 322.573 394.529 322.151 394.092C321.729 393.655 321.436 393.171 321.272 392.639L323.701 392.051C323.81 392.274 323.969 392.495 324.178 392.714C324.386 392.937 324.667 393.121 325.02 393.265C325.377 393.414 325.827 393.488 326.368 393.488C327.133 393.488 327.766 393.302 328.268 392.93C328.77 392.562 329.021 391.956 329.021 391.112V388.944H328.886C328.747 389.222 328.544 389.507 328.276 389.8C328.012 390.094 327.662 390.339 327.225 390.538C326.793 390.737 326.249 390.836 325.593 390.836C324.714 390.836 323.917 390.63 323.202 390.218C322.491 389.8 321.925 389.18 321.503 388.355C321.086 387.526 320.877 386.487 320.877 385.241C320.877 383.984 321.086 382.924 321.503 382.059C321.925 381.19 322.494 380.532 323.209 380.085C323.924 379.633 324.722 379.407 325.601 379.407C326.271 379.407 326.823 379.521 327.255 379.75C327.692 379.973 328.04 380.244 328.298 380.562C328.556 380.875 328.752 381.17 328.886 381.448H329.035V379.556H331.695V391.186C331.695 392.165 331.462 392.974 330.995 393.615C330.528 394.256 329.89 394.735 329.08 395.053C328.271 395.371 327.352 395.53 326.324 395.53ZM326.346 388.72C326.917 388.72 327.404 388.581 327.806 388.303C328.208 388.025 328.514 387.625 328.723 387.103C328.931 386.582 329.035 385.956 329.035 385.226C329.035 384.506 328.931 383.875 328.723 383.333C328.519 382.792 328.216 382.372 327.814 382.074C327.416 381.771 326.927 381.62 326.346 381.62C325.745 381.62 325.243 381.776 324.841 382.089C324.439 382.402 324.136 382.832 323.932 383.378C323.728 383.92 323.626 384.535 323.626 385.226C323.626 385.926 323.728 386.54 323.932 387.066C324.14 387.588 324.446 387.995 324.848 388.288C325.256 388.576 325.755 388.72 326.346 388.72ZM336.918 387.409L336.911 384.153H337.343L341.456 379.556H344.607L339.548 385.189H338.989L336.918 387.409ZM334.459 391V375.741H337.157V391H334.459ZM341.642 391L337.917 385.792L339.734 383.892L344.868 391H341.642ZM349.698 391.231C348.973 391.231 348.319 391.102 347.738 390.844C347.162 390.58 346.705 390.193 346.367 389.681C346.035 389.17 345.868 388.539 345.868 387.789C345.868 387.143 345.987 386.609 346.226 386.187C346.464 385.765 346.79 385.427 347.202 385.174C347.614 384.92 348.078 384.729 348.595 384.6C349.117 384.466 349.655 384.369 350.212 384.309C350.882 384.24 351.426 384.178 351.843 384.123C352.261 384.064 352.564 383.974 352.752 383.855C352.946 383.731 353.043 383.54 353.043 383.281V383.237C353.043 382.675 352.877 382.241 352.544 381.933C352.211 381.625 351.732 381.471 351.106 381.471C350.445 381.471 349.921 381.615 349.534 381.903C349.151 382.191 348.893 382.531 348.759 382.924L346.241 382.566C346.439 381.871 346.767 381.289 347.224 380.823C347.681 380.351 348.24 379.998 348.9 379.765C349.561 379.526 350.291 379.407 351.091 379.407C351.642 379.407 352.191 379.472 352.738 379.601C353.284 379.73 353.783 379.943 354.235 380.241C354.687 380.534 355.05 380.934 355.323 381.441C355.601 381.948 355.74 382.581 355.74 383.341V391H353.147V389.428H353.058C352.894 389.746 352.663 390.044 352.365 390.322C352.072 390.595 351.702 390.816 351.255 390.985C350.813 391.149 350.294 391.231 349.698 391.231ZM350.398 389.249C350.939 389.249 351.409 389.142 351.806 388.929C352.204 388.71 352.509 388.422 352.723 388.064C352.941 387.707 353.05 387.317 353.05 386.895V385.546C352.966 385.616 352.822 385.68 352.618 385.74C352.42 385.8 352.196 385.852 351.948 385.896C351.699 385.941 351.454 385.981 351.21 386.016C350.967 386.05 350.756 386.08 350.577 386.105C350.175 386.16 349.814 386.249 349.497 386.373C349.179 386.497 348.928 386.671 348.744 386.895C348.56 387.113 348.468 387.396 348.468 387.744C348.468 388.241 348.65 388.616 349.012 388.869C349.375 389.122 349.837 389.249 350.398 389.249ZM359.719 395.292C359.351 395.292 359.011 395.262 358.698 395.202C358.39 395.147 358.144 395.083 357.96 395.008L358.586 392.907C358.979 393.022 359.329 393.076 359.637 393.071C359.945 393.066 360.215 392.969 360.449 392.781C360.687 392.597 360.888 392.289 361.052 391.857L361.283 391.238L357.133 379.556H359.994L362.632 388.199H362.751L365.396 379.556H368.264L363.682 392.386C363.469 392.992 363.186 393.511 362.833 393.943C362.48 394.38 362.048 394.713 361.537 394.941C361.03 395.175 360.424 395.292 359.719 395.292ZM373.096 391.231C372.371 391.231 371.718 391.102 371.137 390.844C370.56 390.58 370.103 390.193 369.766 389.681C369.433 389.17 369.267 388.539 369.267 387.789C369.267 387.143 369.386 386.609 369.624 386.187C369.863 385.765 370.188 385.427 370.6 385.174C371.012 384.92 371.477 384.729 371.993 384.6C372.515 384.466 373.054 384.369 373.61 384.309C374.281 384.24 374.825 384.178 375.242 384.123C375.659 384.064 375.962 383.974 376.151 383.855C376.345 383.731 376.441 383.54 376.441 383.281V383.237C376.441 382.675 376.275 382.241 375.942 381.933C375.609 381.625 375.13 381.471 374.504 381.471C373.844 381.471 373.32 381.615 372.932 381.903C372.55 382.191 372.291 382.531 372.157 382.924L369.639 382.566C369.838 381.871 370.166 381.289 370.623 380.823C371.08 380.351 371.638 379.998 372.299 379.765C372.96 379.526 373.69 379.407 374.489 379.407C375.041 379.407 375.59 379.472 376.136 379.601C376.682 379.73 377.182 379.943 377.633 380.241C378.085 380.534 378.448 380.934 378.721 381.441C378.999 381.948 379.139 382.581 379.139 383.341V391H376.546V389.428H376.456C376.292 389.746 376.061 390.044 375.763 390.322C375.47 390.595 375.1 390.816 374.653 390.985C374.211 391.149 373.692 391.231 373.096 391.231ZM373.796 389.249C374.338 389.249 374.807 389.142 375.205 388.929C375.602 388.71 375.907 388.422 376.121 388.064C376.34 387.707 376.449 387.317 376.449 386.895V385.546C376.364 385.616 376.22 385.68 376.017 385.74C375.818 385.8 375.595 385.852 375.346 385.896C375.098 385.941 374.852 385.981 374.609 386.016C374.365 386.05 374.154 386.08 373.975 386.105C373.573 386.16 373.213 386.249 372.895 386.373C372.577 386.497 372.326 386.671 372.142 386.895C371.959 387.113 371.867 387.396 371.867 387.744C371.867 388.241 372.048 388.616 372.411 388.869C372.773 389.122 373.235 389.249 373.796 389.249ZM390.895 382.581L388.437 382.849C388.367 382.601 388.246 382.367 388.072 382.149C387.903 381.93 387.674 381.754 387.386 381.62C387.098 381.486 386.746 381.419 386.328 381.419C385.767 381.419 385.295 381.54 384.913 381.784C384.535 382.027 384.349 382.342 384.354 382.73C384.349 383.063 384.471 383.333 384.719 383.542C384.972 383.751 385.39 383.922 385.971 384.056L387.923 384.473C389.006 384.707 389.81 385.077 390.337 385.583C390.868 386.09 391.136 386.753 391.141 387.573C391.136 388.293 390.925 388.929 390.508 389.48C390.096 390.026 389.522 390.454 388.787 390.762C388.052 391.07 387.207 391.224 386.254 391.224C384.853 391.224 383.726 390.93 382.871 390.344C382.017 389.753 381.508 388.931 381.344 387.878L383.974 387.625C384.093 388.141 384.346 388.531 384.734 388.795C385.121 389.058 385.625 389.19 386.246 389.19C386.887 389.19 387.401 389.058 387.789 388.795C388.181 388.531 388.377 388.206 388.377 387.819C388.377 387.491 388.251 387.22 387.997 387.007C387.749 386.793 387.361 386.629 386.835 386.515L384.883 386.105C383.785 385.877 382.973 385.492 382.447 384.95C381.92 384.404 381.659 383.713 381.664 382.879C381.659 382.174 381.851 381.563 382.238 381.046C382.63 380.525 383.174 380.122 383.87 379.839C384.57 379.551 385.377 379.407 386.291 379.407C387.632 379.407 388.688 379.693 389.458 380.264C390.232 380.835 390.712 381.607 390.895 382.581ZM396.658 391.231C395.933 391.231 395.28 391.102 394.699 390.844C394.123 390.58 393.666 390.193 393.328 389.681C392.995 389.17 392.829 388.539 392.829 387.789C392.829 387.143 392.948 386.609 393.187 386.187C393.425 385.765 393.75 385.427 394.163 385.174C394.575 384.92 395.039 384.729 395.556 384.6C396.077 384.466 396.616 384.369 397.173 384.309C397.843 384.24 398.387 384.178 398.804 384.123C399.221 384.064 399.524 383.974 399.713 383.855C399.907 383.731 400.004 383.54 400.004 383.281V383.237C400.004 382.675 399.837 382.241 399.505 381.933C399.172 381.625 398.692 381.471 398.067 381.471C397.406 381.471 396.882 381.615 396.495 381.903C396.112 382.191 395.854 382.531 395.72 382.924L393.201 382.566C393.4 381.871 393.728 381.289 394.185 380.823C394.642 380.351 395.201 379.998 395.861 379.765C396.522 379.526 397.252 379.407 398.052 379.407C398.603 379.407 399.152 379.472 399.698 379.601C400.245 379.73 400.744 379.943 401.196 380.241C401.648 380.534 402.01 380.934 402.284 381.441C402.562 381.948 402.701 382.581 402.701 383.341V391H400.108V389.428H400.019C399.855 389.746 399.624 390.044 399.326 390.322C399.033 390.595 398.663 390.816 398.216 390.985C397.774 391.149 397.254 391.231 396.658 391.231ZM397.359 389.249C397.9 389.249 398.37 389.142 398.767 388.929C399.164 388.71 399.47 388.422 399.683 388.064C399.902 387.707 400.011 387.317 400.011 386.895V385.546C399.927 385.616 399.783 385.68 399.579 385.74C399.38 385.8 399.157 385.852 398.909 385.896C398.66 385.941 398.414 385.981 398.171 386.016C397.928 386.05 397.716 386.08 397.538 386.105C397.135 386.16 396.775 386.249 396.457 386.373C396.139 386.497 395.889 386.671 395.705 386.895C395.521 387.113 395.429 387.396 395.429 387.744C395.429 388.241 395.61 388.616 395.973 388.869C396.336 389.122 396.798 389.249 397.359 389.249ZM274.505 416V400.741H280.227C281.399 400.741 282.383 400.96 283.177 401.397C283.977 401.834 284.581 402.435 284.988 403.2C285.4 403.96 285.606 404.824 285.606 405.793C285.606 406.771 285.4 407.64 284.988 408.4C284.576 409.16 283.967 409.759 283.163 410.196C282.358 410.628 281.367 410.844 280.19 410.844H276.397V408.572H279.817C280.503 408.572 281.064 408.453 281.501 408.214C281.938 407.976 282.261 407.648 282.47 407.231C282.683 406.813 282.79 406.334 282.79 405.793C282.79 405.251 282.683 404.775 282.47 404.362C282.261 403.95 281.936 403.63 281.494 403.401C281.057 403.168 280.493 403.051 279.802 403.051H277.269V416H274.505ZM292.79 416.224C291.643 416.224 290.652 415.985 289.818 415.508C288.988 415.026 288.35 414.346 287.903 413.467C287.456 412.583 287.232 411.542 287.232 410.345C287.232 409.168 287.456 408.135 287.903 407.246C288.355 406.352 288.986 405.656 289.795 405.159C290.605 404.658 291.556 404.407 292.649 404.407C293.354 404.407 294.02 404.521 294.646 404.75C295.276 404.973 295.833 405.321 296.315 405.793C296.801 406.265 297.184 406.866 297.462 407.596C297.74 408.321 297.879 409.185 297.879 410.189V411.016H288.499V409.198H295.294C295.289 408.681 295.177 408.222 294.959 407.819C294.74 407.412 294.435 407.092 294.042 406.858C293.655 406.625 293.203 406.508 292.686 406.508C292.135 406.508 291.651 406.642 291.233 406.91C290.816 407.174 290.491 407.521 290.257 407.953C290.029 408.381 289.912 408.85 289.907 409.362V410.949C289.907 411.614 290.029 412.185 290.272 412.662C290.516 413.134 290.856 413.497 291.293 413.75C291.73 413.998 292.242 414.122 292.828 414.122C293.22 414.122 293.575 414.068 293.893 413.959C294.211 413.844 294.487 413.678 294.72 413.459C294.954 413.241 295.13 412.97 295.249 412.647L297.767 412.93C297.609 413.596 297.306 414.177 296.858 414.674C296.416 415.166 295.85 415.548 295.16 415.821C294.469 416.089 293.68 416.224 292.79 416.224ZM300.161 416V404.556H302.776V406.463H302.895C303.104 405.803 303.462 405.294 303.968 404.936C304.48 404.573 305.063 404.392 305.719 404.392C305.868 404.392 306.034 404.4 306.218 404.414C306.407 404.424 306.563 404.442 306.688 404.467V406.948C306.573 406.908 306.392 406.873 306.144 406.843C305.9 406.809 305.664 406.791 305.436 406.791C304.944 406.791 304.502 406.898 304.11 407.112C303.722 407.32 303.417 407.611 303.193 407.983C302.97 408.356 302.858 408.785 302.858 409.272V416H300.161ZM311.568 416.231C310.843 416.231 310.189 416.102 309.608 415.844C309.032 415.58 308.575 415.193 308.237 414.681C307.905 414.17 307.738 413.539 307.738 412.789C307.738 412.143 307.857 411.609 308.096 411.187C308.334 410.765 308.66 410.427 309.072 410.174C309.484 409.92 309.948 409.729 310.465 409.6C310.987 409.466 311.525 409.369 312.082 409.309C312.752 409.24 313.296 409.178 313.713 409.123C314.131 409.064 314.434 408.974 314.622 408.855C314.816 408.731 314.913 408.54 314.913 408.281V408.237C314.913 407.675 314.747 407.241 314.414 406.933C314.081 406.625 313.602 406.471 312.976 406.471C312.315 406.471 311.791 406.615 311.404 406.903C311.021 407.191 310.763 407.531 310.629 407.924L308.111 407.566C308.309 406.871 308.637 406.289 309.094 405.823C309.551 405.351 310.11 404.998 310.771 404.765C311.431 404.526 312.161 404.407 312.961 404.407C313.512 404.407 314.061 404.472 314.608 404.601C315.154 404.73 315.653 404.943 316.105 405.241C316.557 405.534 316.92 405.934 317.193 406.441C317.471 406.948 317.61 407.581 317.61 408.341V416H315.017V414.428H314.928C314.764 414.746 314.533 415.044 314.235 415.322C313.942 415.595 313.572 415.816 313.125 415.985C312.683 416.149 312.164 416.231 311.568 416.231ZM312.268 414.249C312.809 414.249 313.279 414.142 313.676 413.929C314.074 413.71 314.379 413.422 314.593 413.064C314.811 412.707 314.92 412.317 314.92 411.895V410.546C314.836 410.616 314.692 410.68 314.488 410.74C314.29 410.8 314.066 410.852 313.818 410.896C313.569 410.941 313.324 410.981 313.08 411.016C312.837 411.05 312.626 411.08 312.447 411.105C312.045 411.16 311.684 411.249 311.367 411.373C311.049 411.497 310.798 411.671 310.614 411.895C310.43 412.113 310.338 412.396 310.338 412.744C310.338 413.241 310.52 413.616 310.882 413.869C311.245 414.122 311.707 414.249 312.268 414.249ZM323.019 409.295V416H320.322V404.556H322.9V406.501H323.034C323.297 405.86 323.717 405.351 324.293 404.973C324.874 404.596 325.592 404.407 326.446 404.407C327.236 404.407 327.924 404.576 328.51 404.914C329.101 405.251 329.558 405.741 329.881 406.381C330.209 407.022 330.37 407.799 330.365 408.713V416H327.668V409.131C327.668 408.366 327.47 407.767 327.072 407.335C326.68 406.903 326.136 406.687 325.441 406.687C324.969 406.687 324.549 406.791 324.181 407C323.819 407.203 323.533 407.499 323.325 407.886C323.121 408.274 323.019 408.743 323.019 409.295ZM338.084 420.53C337.116 420.53 336.284 420.398 335.588 420.135C334.893 419.877 334.334 419.529 333.912 419.092C333.49 418.655 333.197 418.171 333.033 417.639L335.462 417.051C335.571 417.274 335.73 417.495 335.938 417.714C336.147 417.937 336.428 418.121 336.78 418.265C337.138 418.414 337.587 418.488 338.129 418.488C338.894 418.488 339.527 418.302 340.029 417.93C340.53 417.562 340.781 416.956 340.781 416.112V413.944H340.647C340.508 414.222 340.304 414.507 340.036 414.8C339.773 415.094 339.423 415.339 338.986 415.538C338.554 415.737 338.01 415.836 337.354 415.836C336.475 415.836 335.678 415.63 334.962 415.218C334.252 414.8 333.686 414.18 333.264 413.355C332.846 412.526 332.638 411.487 332.638 410.241C332.638 408.984 332.846 407.924 333.264 407.059C333.686 406.19 334.255 405.532 334.97 405.085C335.685 404.633 336.482 404.407 337.361 404.407C338.032 404.407 338.583 404.521 339.015 404.75C339.453 404.973 339.8 405.244 340.059 405.562C340.317 405.875 340.513 406.17 340.647 406.448H340.796V404.556H343.456V416.186C343.456 417.165 343.223 417.974 342.756 418.615C342.289 419.256 341.651 419.735 340.841 420.053C340.031 420.371 339.112 420.53 338.084 420.53ZM338.107 413.72C338.678 413.72 339.165 413.581 339.567 413.303C339.969 413.025 340.275 412.625 340.483 412.103C340.692 411.582 340.796 410.956 340.796 410.226C340.796 409.506 340.692 408.875 340.483 408.333C340.28 407.792 339.977 407.372 339.574 407.074C339.177 406.771 338.688 406.62 338.107 406.62C337.506 406.62 337.004 406.776 336.602 407.089C336.199 407.402 335.896 407.832 335.693 408.378C335.489 408.92 335.387 409.535 335.387 410.226C335.387 410.926 335.489 411.54 335.693 412.066C335.901 412.588 336.207 412.995 336.609 413.288C337.016 413.576 337.515 413.72 338.107 413.72ZM348.679 412.409L348.671 409.153H349.104L353.216 404.556H356.368L351.309 410.189H350.75L348.679 412.409ZM346.22 416V400.741H348.917V416H346.22ZM353.402 416L349.677 410.792L351.495 408.892L356.629 416H353.402ZM361.458 416.231C360.733 416.231 360.08 416.102 359.499 415.844C358.923 415.58 358.466 415.193 358.128 414.681C357.795 414.17 357.629 413.539 357.629 412.789C357.629 412.143 357.748 411.609 357.986 411.187C358.225 410.765 358.55 410.427 358.962 410.174C359.375 409.92 359.839 409.729 360.356 409.6C360.877 409.466 361.416 409.369 361.972 409.309C362.643 409.24 363.187 409.178 363.604 409.123C364.021 409.064 364.324 408.974 364.513 408.855C364.707 408.731 364.804 408.54 364.804 408.281V408.237C364.804 407.675 364.637 407.241 364.304 406.933C363.972 406.625 363.492 406.471 362.867 406.471C362.206 406.471 361.682 406.615 361.294 406.903C360.912 407.191 360.654 407.531 360.52 407.924L358.001 407.566C358.2 406.871 358.528 406.289 358.985 405.823C359.442 405.351 360.001 404.998 360.661 404.765C361.322 404.526 362.052 404.407 362.852 404.407C363.403 404.407 363.952 404.472 364.498 404.601C365.045 404.73 365.544 404.943 365.996 405.241C366.448 405.534 366.81 405.934 367.084 406.441C367.362 406.948 367.501 407.581 367.501 408.341V416H364.908V414.428H364.819C364.655 414.746 364.424 415.044 364.126 415.322C363.833 415.595 363.463 415.816 363.016 415.985C362.573 416.149 362.054 416.231 361.458 416.231ZM362.159 414.249C362.7 414.249 363.17 414.142 363.567 413.929C363.964 413.71 364.27 413.422 364.483 413.064C364.702 412.707 364.811 412.317 364.811 411.895V410.546C364.727 410.616 364.583 410.68 364.379 410.74C364.18 410.8 363.957 410.852 363.708 410.896C363.46 410.941 363.214 410.981 362.971 411.016C362.727 411.05 362.516 411.08 362.338 411.105C361.935 411.16 361.575 411.249 361.257 411.373C360.939 411.497 360.688 411.671 360.505 411.895C360.321 412.113 360.229 412.396 360.229 412.744C360.229 413.241 360.41 413.616 360.773 413.869C361.136 414.122 361.597 414.249 362.159 414.249ZM375.927 404.556V406.642H369.349V404.556H375.927ZM370.973 401.814H373.67V412.558C373.67 412.92 373.724 413.199 373.834 413.392C373.948 413.581 374.097 413.71 374.281 413.78C374.465 413.849 374.668 413.884 374.892 413.884C375.061 413.884 375.215 413.872 375.354 413.847C375.498 413.822 375.607 413.8 375.681 413.78L376.136 415.888C375.992 415.938 375.786 415.993 375.518 416.052C375.254 416.112 374.931 416.147 374.549 416.156C373.873 416.176 373.265 416.075 372.724 415.851C372.182 415.623 371.753 415.27 371.435 414.793C371.122 414.316 370.968 413.72 370.973 413.005V401.814ZM383.506 416V400.741H386.271V413.683H392.991V416H383.506ZM402.565 411.187V404.556H405.262V416H402.647V413.966H402.528C402.269 414.607 401.845 415.131 401.254 415.538C400.667 415.945 399.945 416.149 399.085 416.149C398.335 416.149 397.672 415.983 397.096 415.65C396.525 415.312 396.078 414.823 395.755 414.182C395.432 413.536 395.271 412.757 395.271 411.843V404.556H397.968V411.425C397.968 412.151 398.167 412.727 398.564 413.154C398.961 413.581 399.483 413.795 400.129 413.795C400.526 413.795 400.911 413.698 401.283 413.504C401.656 413.31 401.961 413.022 402.2 412.64C402.443 412.252 402.565 411.768 402.565 411.187ZM410.733 409.295V416H408.035V404.556H410.613V406.501H410.747C411.011 405.86 411.43 405.351 412.007 404.973C412.588 404.596 413.305 404.407 414.16 404.407C414.95 404.407 415.637 404.576 416.224 404.914C416.815 405.251 417.272 405.741 417.594 406.381C417.922 407.022 418.084 407.799 418.079 408.713V416H415.382V409.131C415.382 408.366 415.183 407.767 414.786 407.335C414.393 406.903 413.849 406.687 413.154 406.687C412.682 406.687 412.262 406.791 411.895 407C411.532 407.203 411.247 407.499 411.038 407.886C410.834 408.274 410.733 408.743 410.733 409.295ZM424.114 416.231C423.389 416.231 422.735 416.102 422.154 415.844C421.578 415.58 421.121 415.193 420.783 414.681C420.451 414.17 420.284 413.539 420.284 412.789C420.284 412.143 420.403 411.609 420.642 411.187C420.88 410.765 421.205 410.427 421.618 410.174C422.03 409.92 422.494 409.729 423.011 409.6C423.533 409.466 424.071 409.369 424.628 409.309C425.298 409.24 425.842 409.178 426.259 409.123C426.677 409.064 426.98 408.974 427.168 408.855C427.362 408.731 427.459 408.54 427.459 408.281V408.237C427.459 407.675 427.293 407.241 426.96 406.933C426.627 406.625 426.148 406.471 425.522 406.471C424.861 406.471 424.337 406.615 423.95 406.903C423.567 407.191 423.309 407.531 423.175 407.924L420.657 407.566C420.855 406.871 421.183 406.289 421.64 405.823C422.097 405.351 422.656 404.998 423.316 404.765C423.977 404.526 424.707 404.407 425.507 404.407C426.058 404.407 426.607 404.472 427.154 404.601C427.7 404.73 428.199 404.943 428.651 405.241C429.103 405.534 429.466 405.934 429.739 406.441C430.017 406.948 430.156 407.581 430.156 408.341V416H427.563V414.428H427.474C427.31 414.746 427.079 415.044 426.781 415.322C426.488 415.595 426.118 415.816 425.671 415.985C425.229 416.149 424.71 416.231 424.114 416.231ZM424.814 414.249C425.355 414.249 425.825 414.142 426.222 413.929C426.62 413.71 426.925 413.422 427.139 413.064C427.357 412.707 427.466 412.317 427.466 411.895V410.546C427.382 410.616 427.238 410.68 427.034 410.74C426.836 410.8 426.612 410.852 426.364 410.896C426.115 410.941 425.87 410.981 425.626 411.016C425.383 411.05 425.172 411.08 424.993 411.105C424.591 411.16 424.23 411.249 423.913 411.373C423.595 411.497 423.344 411.671 423.16 411.895C422.976 412.113 422.884 412.396 422.884 412.744C422.884 413.241 423.066 413.616 423.428 413.869C423.791 414.122 424.253 414.249 424.814 414.249ZM435.327 412.409L435.319 409.153H435.751L439.864 404.556H443.016L437.957 410.189H437.398L435.327 412.409ZM432.868 416V400.741H435.565V416H432.868ZM440.05 416L436.325 410.792L438.143 408.892L443.276 416H440.05ZM449.626 409.779C449.626 411.636 449.378 413.348 448.881 414.912C448.389 416.472 447.654 417.915 446.676 419.241H444.135C444.518 418.749 444.87 418.148 445.193 417.438C445.521 416.728 445.804 415.948 446.042 415.098C446.286 414.249 446.475 413.37 446.609 412.461C446.748 411.552 446.817 410.658 446.817 409.779C446.817 408.602 446.698 407.41 446.46 406.203C446.226 404.996 445.906 403.875 445.499 402.842C445.096 401.809 444.642 400.965 444.135 400.309H446.676C447.654 401.635 448.389 403.081 448.881 404.645C449.378 406.205 449.626 407.916 449.626 409.779Z" fill="#2F3AAE"/>
</g>
<defs>
<clipPath id="clip0_148_18">
<rect width="531" height="458" rx="40" fill="white"/>
</clipPath>
</defs>
</svg>
